{"title":"Fright Night 2011 TS XViD DTRG","uid":6625691,"size":1105844707,"categoryP":"video","categoryS":"movies","magnet":"?xt=urn:btih:7152ae5a7a81b7eb18494d28e41dfa1db48e48bb&amp;dn=Fright+Night+2011+TS+XViD+DTRG&amp;tr=udp%3A%2F%2Ftracker.openbittorrent.com%3A80&amp;tr=udp%3A%2F%2Fopen.demonii.com%3A1337&amp;tr=udp%3A%2F%2Ftracker.coppersurfer.tk%3A6969&amp;tr=udp%3A%2F%2Fexodus.desync.com%3A6969","seeders":0,"leechers":1,"uploader":"SAFCukO09","files":4,"time":1314165889,"description":"Format : AVI\nFormat/Info : Audio Video Interleave\nFile size : 1.02 GiB\nDuration : 1h 38mn\nOverall bit rate : 1 488 Kbps\nWriting library : VirtualDub build 32842/release\n\nVideo\nID : 0\nFormat : MPEG-4 Visual\nFormat profile : Advanced Simple@L5\nFormat settings, BVOP : 2\nFormat settings, QPel : No\nFormat settings, GMC : No warppoints\nFormat settings, Matrix : Default (H.263)\nMuxing mode : Packed bitstream\nCodec ID : XVID\nCodec ID/Hint : XviD\nDuration : 1h 38mn\nBit rate : 1 349 Kbps\nWidth : 720 pixels\nHeight : 304 pixels\nDisplay aspect ratio : 2.35:1\nFrame rate : 29.970 fps\nColor space : YUV\nChroma subsampling : 4:2:0\nBit depth : 8 bits\nScan type : Progressive\nCompression mode : Lossy\nBits/(Pixel*Frame) : 0.206\nStream size : 948 MiB (91%)\nWriting library : XviD 64\n\nAudio\nID : 1\nFormat : MPEG Audio\nFormat version : Version 1\nFormat profile : Layer 3\nMode : Joint stereo\nMode extension : MS Stereo\nCodec ID : 55\nCodec ID/Hint : MP3\nDuration : 1h 38mn\nBit rate mode : Constant\nBit rate : 128 Kbps\nChannel(s) : 2 channels\nSampling rate : 44.1 KHz\nCompression mode : Lossy\nDelay relative to video : 18ms\nStream size : 89.9 MiB (9%)\nAlignment : Split accross interleaves\nInterleave, duration : 33 ms (1.00 video frame)\nInterleave, preload duration : 500 ms\nWriting library : LAME3.98.4\n\n\n\n\n\n\n &lt;a href=&quot;\nhttp://www.imdb.com/title/tt1438176/&quot; rel=&quot;nofollow&quot; target=&quot;_NEW&quot;&gt;\nhttp://www.imdb.com/title/tt1438176/&lt;/a&gt;\n\n\n\n\n\n89524873606771859129.png\n\n\n\nStoryline\n\nA remake of the 1985 original, teenager Charley Brewster (Yelchin) guesses that his new neighbor Jerry Dandrige (Farrell) is a vampire responsible for a string of recent deaths. When no one he knows believes him, he enlists Peter Vincent (Tennant), a self proclaimed vampire killer and Las Vegas magician, to help him take down Jerry.\n\n\n\n95521316153253938506.png\n\n\n\n\nvlcsnap2011082320h21m40.png\n\nvlcsnap2011082320h21m16.png\n\nvlcsnap2011082320h20m10.png\n\nvlcsnap2011082320h18m55.png\n\n\n\n\n\n\nSource Used\n\n\nIMAGiNE .................Thanks guys\n\n\nNot loads done just a few filters to an already good vid .....Few dark scenes but still good copy\n\n\n\nEnjoy\n\n\n\n\n\nGreetz to IMAGiNE,Flawl3ss,DiLLoN,BDK,NOiR,TOXiC,THC,Ez,Rx,Boobyblue,TaRiQ786\n\n","torrent":{"xt":"urn:btih:7152ae5a7a81b7eb18494d28e41dfa1db48e48bb","amp;dn":"Fright+Night+2011+TS+XViD+DTRG","amp;tr":["udp%3A%2F%2Ftracker.openbittorrent.com%3A80","udp%3A%2F%2Fopen.demonii.com%3A1337","udp%3A%2F%2Ftracker.coppersurfer.tk%3A6969","udp%3A%2F%2Fexodus.desync.com%3A6969"],"infoHash":"7152ae5a7a81b7eb18494d28e41dfa1db48e48bb","infoHashBuffer":{"type":"Buffer","data":[113,82,174,90,122,129,183,235,24,73,77,40,228,29,250,29,180,142,72,187]},"announce":[],"urlList":[]}}